<?xml version="1.0" encoding="UTF-8" standalone="no" ?>
<!DOCTYPE svg PUBLIC "-//W3C//DTD SVG 1.1//EN" "http://www.w3.org/Graphics/SVG/1.1/DTD/svg11.dtd">
<svg xmlns="http://www.w3.org/2000/svg" xmlns:xlink="http://www.w3.org/1999/xlink" version="1.1" width="1280" height="1024" viewBox="0 0 1280 1024" xml:space="preserve">
<desc>Created with Fabric.js 5.3.0</desc>
<defs>
</defs>
<g transform="matrix(1 0 0 1 640 512)" id="background-logo"  >
<rect style="stroke: none; stroke-width: 0; stroke-dasharray: none; stroke-linecap: butt; stroke-dashoffset: 0; stroke-linejoin: miter; stroke-miterlimit: 4; fill: rgb(255,255,255); fill-opacity: 0; fill-rule: nonzero; opacity: 1;"  paint-order="stroke"  x="-640" y="-512" rx="0" ry="0" width="1280" height="1024" />
</g>
<g transform="matrix(1.9211538461538462 0 0 1.9211538461538462 640.2997 514.7722892915873)" id="text-logo"  >
<g style=""  paint-order="stroke"   >
		<g transform="matrix(1 0 0 1 5.684342e-14 0)" id="text-logo-path-0"  >
<path style="stroke: none; stroke-width: 0; stroke-dasharray: none; stroke-linecap: butt; stroke-dashoffset: 0; stroke-linejoin: miter; stroke-miterlimit: 4; fill: rgb(213,213,213); fill-rule: nonzero; opacity: 1;"  paint-order="stroke"  transform=" translate(-259.665, 15.015)" d="M 2.69 0 L 2.11 -9.95 L 3.63 -9.95 Q 4.17 -6.24 6.59 -4.11 Q 9.01 -1.99 12.56 -1.99 L 12.56 -1.99 Q 14 -1.99 15.21 -2.34 Q 16.42 -2.69 17.28 -3.33 Q 18.14 -3.98 18.6 -4.86 Q 19.07 -5.73 19.07 -6.83 L 19.07 -6.83 Q 19.07 -7.76 18.78 -8.44 Q 18.49 -9.13 17.67 -9.77 Q 16.85 -10.41 15.42 -11.08 Q 14 -11.74 11.74 -12.6 L 11.74 -12.6 Q 7.18 -14.35 4.99 -16.67 Q 2.81 -18.99 2.81 -22.15 L 2.81 -22.15 Q 2.81 -23.98 3.51 -25.51 Q 4.21 -27.03 5.48 -28.12 Q 6.75 -29.21 8.52 -29.82 Q 10.3 -30.42 12.44 -30.42 L 12.44 -30.42 Q 14.43 -30.42 16.18 -29.8 Q 17.94 -29.17 19.66 -27.92 L 19.66 -27.92 L 20.36 -29.87 L 21.29 -29.87 L 21.72 -21.45 L 20.2 -21.45 Q 19.27 -24.65 17.28 -26.34 Q 15.29 -28.04 12.68 -28.04 L 12.68 -28.04 Q 10.26 -28.04 8.76 -26.85 Q 7.25 -25.66 7.25 -23.79 L 7.25 -23.79 Q 7.25 -22.97 7.53 -22.33 Q 7.8 -21.68 8.54 -21.1 Q 9.28 -20.51 10.57 -19.91 Q 11.86 -19.3 13.88 -18.56 L 13.88 -18.56 Q 16.61 -17.51 18.54 -16.44 Q 20.48 -15.37 21.7 -14.14 Q 22.93 -12.91 23.52 -11.54 Q 24.1 -10.18 24.1 -8.54 L 24.1 -8.54 Q 24.1 -6.55 23.24 -4.91 Q 22.39 -3.28 20.85 -2.11 Q 19.3 -0.94 17.18 -0.27 Q 15.05 0.39 12.48 0.39 L 12.48 0.39 Q 10.14 0.39 8.27 -0.25 Q 6.4 -0.9 4.41 -2.34 L 4.41 -2.34 L 3.63 0 L 2.69 0 Z M 38.92 -26.52 L 38.92 -16.61 Q 41.42 -16.61 42.94 -16.77 Q 44.46 -16.93 45.3 -17.41 Q 46.14 -17.9 46.49 -18.84 Q 46.84 -19.77 47.03 -21.37 L 47.03 -21.37 L 48.48 -21.37 L 48.48 -9.95 L 47.03 -9.95 Q 46.8 -11.51 46.41 -12.44 Q 46.02 -13.38 45.16 -13.86 Q 44.3 -14.35 42.84 -14.49 Q 41.38 -14.63 38.92 -14.63 L 38.92 -14.63 L 38.92 -6.59 Q 38.92 -5.34 39.25 -4.49 Q 39.59 -3.63 40.36 -3.1 Q 41.14 -2.57 42.43 -2.36 Q 43.72 -2.15 45.59 -2.15 L 45.59 -2.15 Q 47.81 -2.15 49.35 -2.46 Q 50.89 -2.77 51.91 -3.55 Q 52.92 -4.33 53.55 -5.64 Q 54.17 -6.94 54.6 -8.93 L 54.6 -8.93 L 56.16 -8.93 L 55.54 0 L 29.09 0 L 29.09 -1.56 Q 30.38 -1.6 31.2 -1.79 Q 32.02 -1.99 32.45 -2.46 Q 32.88 -2.92 33.03 -3.78 Q 33.19 -4.64 33.19 -6.01 L 33.19 -6.01 L 33.19 -24.02 Q 33.19 -25.39 33.05 -26.23 Q 32.92 -27.07 32.53 -27.55 Q 32.14 -28.04 31.41 -28.22 Q 30.69 -28.39 29.52 -28.47 L 29.52 -28.47 L 29.52 -30.03 L 54.17 -30.03 L 54.44 -22.39 L 52.77 -22.39 Q 52.53 -24.02 52.03 -25.1 Q 51.52 -26.17 50.62 -26.81 Q 49.72 -27.46 48.3 -27.71 Q 46.88 -27.96 44.81 -27.96 L 44.81 -27.96 L 40.4 -27.96 Q 39.39 -27.96 39.16 -27.71 Q 38.92 -27.46 38.92 -26.52 L 38.92 -26.52 Z M 86.5 -22.5 L 86.5 -22.5 Q 86.5 -19.27 84.63 -17.08 Q 82.76 -14.9 78.66 -14.16 L 78.66 -14.16 L 87.71 -3.78 Q 88.65 -2.69 89.93 -2.13 Q 91.22 -1.56 92.55 -1.56 L 92.55 -1.56 L 92.55 0 L 83.3 0 L 73.63 -11.86 Q 72.66 -13.03 71.94 -13.44 Q 71.21 -13.85 70.59 -13.85 L 70.59 -13.85 L 70.59 -6.2 Q 70.59 -4.76 70.78 -3.84 Q 70.98 -2.92 71.56 -2.42 Q 72.15 -1.91 73.26 -1.74 Q 74.37 -1.56 76.25 -1.56 L 76.25 -1.56 L 76.25 0 L 60.76 0 L 60.76 -1.56 Q 62.05 -1.56 62.85 -1.74 Q 63.65 -1.91 64.1 -2.4 Q 64.55 -2.89 64.7 -3.76 Q 64.86 -4.64 64.86 -6.01 L 64.86 -6.01 L 64.86 -24.02 Q 64.86 -25.39 64.74 -26.23 Q 64.62 -27.07 64.23 -27.55 Q 63.84 -28.04 63.12 -28.22 Q 62.4 -28.39 61.19 -28.47 L 61.19 -28.47 L 61.19 -30.03 L 74.69 -30.03 Q 80.34 -30.03 83.42 -28.04 Q 86.5 -26.05 86.5 -22.5 Z M 70.59 -27.18 L 70.59 -16.18 L 73.13 -16.18 Q 76.79 -16.18 78.6 -17.61 Q 80.42 -19.03 80.42 -22.31 L 80.42 -22.31 Q 80.42 -24.8 78.9 -26.32 Q 77.38 -27.85 74.69 -27.85 L 74.69 -27.85 L 71.29 -27.85 Q 70.59 -27.85 70.59 -27.18 L 70.59 -27.18 Z M 101.98 -23.79 L 108.22 -6.71 L 113.3 -19.7 Q 114.04 -21.61 114.48 -22.82 Q 114.93 -24.02 115.17 -24.8 Q 115.4 -25.58 115.48 -26.05 Q 115.56 -26.52 115.56 -26.95 L 115.56 -26.95 Q 115.56 -27.89 114.86 -28.18 Q 114.15 -28.47 112.05 -28.47 L 112.05 -28.47 L 112.05 -30.03 L 123.12 -30.03 L 123.12 -28.47 Q 119.89 -28.47 118.64 -25.31 L 118.64 -25.31 L 108.38 0.39 L 105.5 0.39 L 96.17 -22.39 Q 95.39 -24.22 94.77 -25.39 Q 94.15 -26.56 93.44 -27.24 Q 92.74 -27.92 91.9 -28.18 Q 91.06 -28.43 89.93 -28.43 L 89.93 -28.43 L 89.93 -30.03 L 104.68 -30.03 L 104.68 -28.43 Q 103.66 -28.39 102.98 -28.31 Q 102.3 -28.24 101.91 -28.06 Q 101.52 -27.89 101.36 -27.59 Q 101.2 -27.3 101.2 -26.87 L 101.2 -26.87 Q 101.2 -26.32 101.4 -25.58 Q 101.59 -24.84 101.98 -23.79 L 101.98 -23.79 Z M 141.53 -6.75 L 140.63 -9.09 L 129.6 -9.09 Q 127.76 -4.95 127.76 -3.35 L 127.76 -3.35 Q 127.76 -2.18 128.64 -1.87 Q 129.52 -1.56 131.27 -1.56 L 131.27 -1.56 L 131.27 0 L 120.59 0 L 120.59 -1.56 Q 121.52 -1.68 122.21 -1.87 Q 122.89 -2.07 123.42 -2.42 Q 123.94 -2.77 124.33 -3.33 Q 124.72 -3.9 125.07 -4.72 L 125.07 -4.72 L 135.33 -30.42 L 138.22 -30.42 L 147.54 -7.64 Q 148.36 -5.66 148.92 -4.52 Q 149.49 -3.39 150.13 -2.79 Q 150.77 -2.18 151.61 -1.95 Q 152.45 -1.72 153.78 -1.6 L 153.78 -1.6 L 153.78 0 L 139.03 0 L 139.03 -1.6 Q 140.91 -1.68 141.73 -1.99 Q 142.54 -2.3 142.54 -3.24 L 142.54 -3.24 Q 142.54 -3.78 142.27 -4.64 Q 142 -5.5 141.53 -6.75 L 141.53 -6.75 Z M 135.13 -23.24 L 130.49 -11.43 L 139.78 -11.43 L 135.29 -23.24 L 135.13 -23.24 Z M 185.87 0.39 L 180.65 0.39 L 163.37 -24.22 L 163.22 -24.22 L 163.22 -7.45 Q 163.22 -5.5 163.35 -4.37 Q 163.49 -3.24 163.94 -2.61 Q 164.38 -1.99 165.18 -1.79 Q 165.98 -1.6 167.27 -1.56 L 167.27 -1.56 L 167.27 0 L 155.69 0 L 155.69 -1.56 Q 157.13 -1.6 158.01 -1.81 Q 158.89 -2.03 159.37 -2.61 Q 159.86 -3.2 160.02 -4.27 Q 160.17 -5.34 160.17 -7.18 L 160.17 -7.18 L 160.17 -22.85 Q 160.17 -24.49 160.02 -25.56 Q 159.86 -26.64 159.43 -27.26 Q 159 -27.89 158.2 -28.14 Q 157.4 -28.39 156.08 -28.47 L 156.08 -28.47 L 156.08 -30.03 L 166.96 -30.03 L 182.68 -7.49 L 182.83 -7.49 L 182.83 -22.58 Q 182.83 -24.49 182.7 -25.64 Q 182.56 -26.79 182.11 -27.42 Q 181.66 -28.04 180.86 -28.24 Q 180.06 -28.43 178.78 -28.47 L 178.78 -28.47 L 178.78 -30.03 L 190.36 -30.03 L 190.36 -28.47 Q 188.92 -28.43 188.04 -28.22 Q 187.16 -28 186.67 -27.42 Q 186.19 -26.83 186.03 -25.74 Q 185.87 -24.65 185.87 -22.85 L 185.87 -22.85 L 185.87 0.39 Z M 210.68 0 L 194.42 0 L 194.42 -1.56 Q 195.7 -1.6 196.5 -1.77 Q 197.3 -1.95 197.75 -2.44 Q 198.2 -2.92 198.35 -3.76 Q 198.51 -4.6 198.51 -6.01 L 198.51 -6.01 L 198.51 -24.02 Q 198.51 -25.39 198.39 -26.23 Q 198.28 -27.07 197.89 -27.55 Q 197.5 -28.04 196.81 -28.22 Q 196.13 -28.39 195.04 -28.47 L 195.04 -28.47 L 195.04 -30.03 L 209.86 -30.03 Q 213.6 -30.03 216.76 -28.86 Q 219.92 -27.69 222.22 -25.62 Q 224.52 -23.56 225.81 -20.71 Q 227.1 -17.86 227.1 -14.51 L 227.1 -14.51 Q 227.1 -11.31 225.89 -8.64 Q 224.68 -5.97 222.51 -4.06 Q 220.35 -2.15 217.33 -1.07 Q 214.31 0 210.68 0 L 210.68 0 Z M 209.78 -27.65 L 204.91 -27.65 Q 204.24 -27.65 204.24 -26.99 L 204.24 -26.99 L 204.24 -6.83 Q 204.24 -4.56 205.65 -3.47 Q 207.05 -2.38 209.98 -2.38 L 209.98 -2.38 Q 215.09 -2.38 217.83 -5.46 Q 220.58 -8.54 220.58 -14.43 L 220.58 -14.43 Q 220.58 -17.55 219.84 -20.01 Q 219.1 -22.46 217.7 -24.16 Q 216.29 -25.86 214.29 -26.75 Q 212.28 -27.65 209.78 -27.65 L 209.78 -27.65 Z M 249.87 -6.75 L 248.98 -9.09 L 237.94 -9.09 Q 236.11 -4.95 236.11 -3.35 L 236.11 -3.35 Q 236.11 -2.18 236.98 -1.87 Q 237.86 -1.56 239.62 -1.56 L 239.62 -1.56 L 239.62 0 L 228.93 0 L 228.93 -1.56 Q 229.87 -1.68 230.55 -1.87 Q 231.23 -2.07 231.76 -2.42 Q 232.28 -2.77 232.67 -3.33 Q 233.06 -3.9 233.42 -4.72 L 233.42 -4.72 L 243.67 -30.42 L 246.56 -30.42 L 255.88 -7.64 Q 256.7 -5.66 257.26 -4.52 Q 257.83 -3.39 258.47 -2.79 Q 259.12 -2.18 259.95 -1.95 Q 260.79 -1.72 262.12 -1.6 L 262.12 -1.6 L 262.12 0 L 247.38 0 L 247.38 -1.6 Q 249.25 -1.68 250.07 -1.99 Q 250.89 -2.3 250.89 -3.24 L 250.89 -3.24 Q 250.89 -3.78 250.61 -4.64 Q 250.34 -5.5 249.87 -6.75 L 249.87 -6.75 Z M 243.48 -23.24 L 238.84 -11.43 L 248.12 -11.43 L 243.63 -23.24 L 243.48 -23.24 Z M 292.34 -6.75 L 291.45 -9.09 L 280.41 -9.09 Q 278.58 -4.95 278.58 -3.35 L 278.58 -3.35 Q 278.58 -2.18 279.45 -1.87 Q 280.33 -1.56 282.09 -1.56 L 282.09 -1.56 L 282.09 0 L 271.4 0 L 271.4 -1.56 Q 272.34 -1.68 273.02 -1.87 Q 273.7 -2.07 274.23 -2.42 Q 274.76 -2.77 275.15 -3.33 Q 275.54 -3.9 275.89 -4.72 L 275.89 -4.72 L 286.14 -30.42 L 289.03 -30.42 L 298.35 -7.64 Q 299.17 -5.66 299.73 -4.52 Q 300.3 -3.39 300.94 -2.79 Q 301.59 -2.18 302.43 -1.95 Q 303.26 -1.72 304.59 -1.6 L 304.59 -1.6 L 304.59 0 L 289.85 0 L 289.85 -1.6 Q 291.72 -1.68 292.54 -1.99 Q 293.36 -2.3 293.36 -3.24 L 293.36 -3.24 Q 293.36 -3.78 293.09 -4.64 Q 292.81 -5.5 292.34 -6.75 L 292.34 -6.75 Z M 285.95 -23.24 L 281.31 -11.43 L 290.59 -11.43 L 286.1 -23.24 L 285.95 -23.24 Z M 322.96 0 L 306.7 0 L 306.7 -1.56 Q 307.98 -1.6 308.78 -1.77 Q 309.58 -1.95 310.03 -2.44 Q 310.48 -2.92 310.64 -3.76 Q 310.79 -4.6 310.79 -6.01 L 310.79 -6.01 L 310.79 -24.02 Q 310.79 -25.39 310.67 -26.23 Q 310.56 -27.07 310.17 -27.55 Q 309.78 -28.04 309.09 -28.22 Q 308.41 -28.39 307.32 -28.47 L 307.32 -28.47 L 307.32 -30.03 L 322.14 -30.03 Q 325.88 -30.03 329.04 -28.86 Q 332.2 -27.69 334.5 -25.62 Q 336.8 -23.56 338.09 -20.71 Q 339.38 -17.86 339.38 -14.51 L 339.38 -14.51 Q 339.38 -11.31 338.17 -8.64 Q 336.96 -5.97 334.8 -4.06 Q 332.63 -2.15 329.61 -1.07 Q 326.59 0 322.96 0 L 322.96 0 Z M 322.06 -27.65 L 317.19 -27.65 Q 316.52 -27.65 316.52 -26.99 L 316.52 -26.99 L 316.52 -6.83 Q 316.52 -4.56 317.93 -3.47 Q 319.33 -2.38 322.26 -2.38 L 322.26 -2.38 Q 327.37 -2.38 330.12 -5.46 Q 332.87 -8.54 332.87 -14.43 L 332.87 -14.43 Q 332.87 -17.55 332.12 -20.01 Q 331.38 -22.46 329.98 -24.16 Q 328.58 -25.86 326.57 -26.75 Q 324.56 -27.65 322.06 -27.65 L 322.06 -27.65 Z M 352.52 -23.79 L 358.76 -6.71 L 363.83 -19.7 Q 364.57 -21.61 365.02 -22.82 Q 365.47 -24.02 365.7 -24.8 Q 365.94 -25.58 366.02 -26.05 Q 366.09 -26.52 366.09 -26.95 L 366.09 -26.95 Q 366.09 -27.89 365.39 -28.18 Q 364.69 -28.47 362.58 -28.47 L 362.58 -28.47 L 362.58 -30.03 L 373.66 -30.03 L 373.66 -28.47 Q 370.42 -28.47 369.17 -25.31 L 369.17 -25.31 L 358.92 0.39 L 356.03 0.39 L 346.71 -22.39 Q 345.93 -24.22 345.31 -25.39 Q 344.68 -26.56 343.98 -27.24 Q 343.28 -27.92 342.44 -28.18 Q 341.6 -28.43 340.47 -28.43 L 340.47 -28.43 L 340.47 -30.03 L 355.21 -30.03 L 355.21 -28.43 Q 354.2 -28.39 353.52 -28.31 Q 352.83 -28.24 352.44 -28.06 Q 352.05 -27.89 351.9 -27.59 Q 351.74 -27.3 351.74 -26.87 L 351.74 -26.87 Q 351.74 -26.32 351.94 -25.58 Q 352.13 -24.84 352.52 -23.79 L 352.52 -23.79 Z M 390.27 -1.56 L 390.27 0 L 376.35 0 L 376.35 -1.56 Q 377.68 -1.6 378.48 -1.81 Q 379.28 -2.03 379.7 -2.61 Q 380.13 -3.2 380.29 -4.27 Q 380.45 -5.34 380.45 -7.18 L 380.45 -7.18 L 380.45 -22.85 Q 380.45 -24.49 380.31 -25.56 Q 380.17 -26.64 379.78 -27.26 Q 379.39 -27.89 378.67 -28.14 Q 377.95 -28.39 376.74 -28.47 L 376.74 -28.47 L 376.74 -30.03 L 389.88 -30.03 L 389.88 -28.47 Q 388.67 -28.39 387.95 -28.14 Q 387.23 -27.89 386.84 -27.26 Q 386.45 -26.64 386.31 -25.56 Q 386.18 -24.49 386.18 -22.85 L 386.18 -22.85 L 386.18 -7.18 Q 386.18 -5.34 386.31 -4.27 Q 386.45 -3.2 386.9 -2.61 Q 387.35 -2.03 388.15 -1.81 Q 388.95 -1.6 390.27 -1.56 L 390.27 -1.56 Z M 396.24 0 L 395.66 -9.95 L 397.18 -9.95 Q 397.72 -6.24 400.14 -4.11 Q 402.56 -1.99 406.11 -1.99 L 406.11 -1.99 Q 407.55 -1.99 408.76 -2.34 Q 409.97 -2.69 410.83 -3.33 Q 411.68 -3.98 412.15 -4.86 Q 412.62 -5.73 412.62 -6.83 L 412.62 -6.83 Q 412.62 -7.76 412.33 -8.44 Q 412.04 -9.13 411.22 -9.77 Q 410.4 -10.41 408.97 -11.08 Q 407.55 -11.74 405.29 -12.6 L 405.29 -12.6 Q 400.73 -14.35 398.54 -16.67 Q 396.36 -18.99 396.36 -22.15 L 396.36 -22.15 Q 396.36 -23.98 397.06 -25.51 Q 397.76 -27.03 399.03 -28.12 Q 400.3 -29.21 402.07 -29.82 Q 403.85 -30.42 405.99 -30.42 L 405.99 -30.42 Q 407.98 -30.42 409.73 -29.8 Q 411.49 -29.17 413.21 -27.92 L 413.21 -27.92 L 413.91 -29.87 L 414.84 -29.87 L 415.27 -21.45 L 413.75 -21.45 Q 412.82 -24.65 410.83 -26.34 Q 408.84 -28.04 406.22 -28.04 L 406.22 -28.04 Q 403.81 -28.04 402.3 -26.85 Q 400.8 -25.66 400.8 -23.79 L 400.8 -23.79 Q 400.8 -22.97 401.08 -22.33 Q 401.35 -21.68 402.09 -21.1 Q 402.83 -20.51 404.12 -19.91 Q 405.41 -19.3 407.43 -18.56 L 407.43 -18.56 Q 410.16 -17.51 412.09 -16.44 Q 414.02 -15.37 415.25 -14.14 Q 416.48 -12.91 417.07 -11.54 Q 417.65 -10.18 417.65 -8.54 L 417.65 -8.54 Q 417.65 -6.55 416.79 -4.91 Q 415.94 -3.28 414.39 -2.11 Q 412.85 -0.94 410.73 -0.27 Q 408.6 0.39 406.03 0.39 L 406.03 0.39 Q 403.69 0.39 401.82 -0.25 Q 399.95 -0.9 397.96 -2.34 L 397.96 -2.34 L 397.18 0 L 396.24 0 Z M 439.69 -30.42 L 439.69 -30.42 Q 443.2 -30.42 446.24 -29.21 Q 449.28 -28 451.52 -25.9 Q 453.77 -23.79 455.05 -20.94 Q 456.34 -18.1 456.34 -14.78 L 456.34 -14.78 Q 456.34 -11.62 455.03 -8.85 Q 453.73 -6.08 451.48 -4.04 Q 449.24 -1.99 446.2 -0.8 Q 443.16 0.39 439.69 0.39 L 439.69 0.39 Q 436.22 0.39 433.17 -0.8 Q 430.13 -1.99 427.87 -4.04 Q 425.61 -6.08 424.32 -8.85 Q 423.03 -11.62 423.03 -14.78 L 423.03 -14.78 Q 423.03 -18.1 424.32 -20.94 Q 425.61 -23.79 427.85 -25.9 Q 430.09 -28 433.13 -29.21 Q 436.18 -30.42 439.69 -30.42 Z M 439.69 -2.15 L 439.69 -2.15 Q 441.95 -2.15 443.78 -3.02 Q 445.61 -3.9 446.9 -5.52 Q 448.19 -7.14 448.87 -9.46 Q 449.55 -11.78 449.55 -14.66 L 449.55 -14.66 Q 449.55 -17.71 448.87 -20.14 Q 448.19 -22.58 446.9 -24.32 Q 445.61 -26.05 443.78 -26.97 Q 441.95 -27.89 439.69 -27.89 L 439.69 -27.89 Q 437.39 -27.89 435.57 -26.97 Q 433.76 -26.05 432.47 -24.32 Q 431.18 -22.58 430.5 -20.14 Q 429.82 -17.71 429.82 -14.66 L 429.82 -14.66 Q 429.82 -11.78 430.5 -9.46 Q 431.18 -7.14 432.47 -5.52 Q 433.76 -3.9 435.57 -3.02 Q 437.39 -2.15 439.69 -2.15 Z M 486.56 -22.5 L 486.56 -22.5 Q 486.56 -19.27 484.69 -17.08 Q 482.82 -14.9 478.73 -14.16 L 478.73 -14.16 L 487.77 -3.78 Q 488.71 -2.69 490 -2.13 Q 491.28 -1.56 492.61 -1.56 L 492.61 -1.56 L 492.61 0 L 483.37 0 L 473.69 -11.86 Q 472.72 -13.03 472 -13.44 Q 471.28 -13.85 470.65 -13.85 L 470.65 -13.85 L 470.65 -6.2 Q 470.65 -4.76 470.85 -3.84 Q 471.04 -2.92 471.63 -2.42 Q 472.21 -1.91 473.32 -1.74 Q 474.44 -1.56 476.31 -1.56 L 476.31 -1.56 L 476.31 0 L 460.82 0 L 460.82 -1.56 Q 462.11 -1.56 462.91 -1.74 Q 463.71 -1.91 464.16 -2.4 Q 464.61 -2.89 464.76 -3.76 Q 464.92 -4.64 464.92 -6.01 L 464.92 -6.01 L 464.92 -24.02 Q 464.92 -25.39 464.8 -26.23 Q 464.69 -27.07 464.3 -27.55 Q 463.91 -28.04 463.18 -28.22 Q 462.46 -28.39 461.25 -28.47 L 461.25 -28.47 L 461.25 -30.03 L 474.75 -30.03 Q 480.4 -30.03 483.48 -28.04 Q 486.56 -26.05 486.56 -22.5 Z M 470.65 -27.18 L 470.65 -16.18 L 473.19 -16.18 Q 476.85 -16.18 478.67 -17.61 Q 480.48 -19.03 480.48 -22.31 L 480.48 -22.31 Q 480.48 -24.8 478.96 -26.32 Q 477.44 -27.85 474.75 -27.85 L 474.75 -27.85 L 471.35 -27.85 Q 470.65 -27.85 470.65 -27.18 L 470.65 -27.18 Z M 495.81 0 L 495.22 -9.95 L 496.74 -9.95 Q 497.29 -6.24 499.71 -4.11 Q 502.13 -1.99 505.67 -1.99 L 505.67 -1.99 Q 507.12 -1.99 508.33 -2.34 Q 509.54 -2.69 510.39 -3.33 Q 511.25 -3.98 511.72 -4.86 Q 512.19 -5.73 512.19 -6.83 L 512.19 -6.83 Q 512.19 -7.76 511.89 -8.44 Q 511.6 -9.13 510.78 -9.77 Q 509.96 -10.41 508.54 -11.08 Q 507.12 -11.74 504.86 -12.6 L 504.86 -12.6 Q 500.29 -14.35 498.11 -16.67 Q 495.92 -18.99 495.92 -22.15 L 495.92 -22.15 Q 495.92 -23.98 496.63 -25.51 Q 497.33 -27.03 498.6 -28.12 Q 499.86 -29.21 501.64 -29.82 Q 503.41 -30.42 505.56 -30.42 L 505.56 -30.42 Q 507.55 -30.42 509.3 -29.8 Q 511.06 -29.17 512.77 -27.92 L 512.77 -27.92 L 513.47 -29.87 L 514.41 -29.87 L 514.84 -21.45 L 513.32 -21.45 Q 512.38 -24.65 510.39 -26.34 Q 508.4 -28.04 505.79 -28.04 L 505.79 -28.04 Q 503.37 -28.04 501.87 -26.85 Q 500.37 -25.66 500.37 -23.79 L 500.37 -23.79 Q 500.37 -22.97 500.64 -22.33 Q 500.92 -21.68 501.66 -21.1 Q 502.4 -20.51 503.69 -19.91 Q 504.97 -19.3 507 -18.56 L 507 -18.56 Q 509.73 -17.51 511.66 -16.44 Q 513.59 -15.37 514.82 -14.14 Q 516.05 -12.91 516.63 -11.54 Q 517.22 -10.18 517.22 -8.54 L 517.22 -8.54 Q 517.22 -6.55 516.36 -4.91 Q 515.5 -3.28 513.96 -2.11 Q 512.42 -0.94 510.3 -0.27 Q 508.17 0.39 505.6 0.39 L 505.6 0.39 Q 503.26 0.39 501.38 -0.25 Q 499.51 -0.9 497.52 -2.34 L 497.52 -2.34 L 496.74 0 L 495.81 0 Z" stroke-linecap="round" />
</g>
</g>
</g>
<g transform="matrix(1.9211538461538462 0 0 1.9211538461538462 640 424.60368866995117)" id="logo-logo"  >
<g style=""  paint-order="stroke"   >
		<g transform="matrix(1 0 0 1 0 0)"  >
<g style=""  paint-order="stroke"   >
		<g transform="matrix(1 0 0 1 0 0)"  >
<path style="stroke: none; stroke-width: 1; stroke-dasharray: none; stroke-linecap: butt; stroke-dashoffset: 0; stroke-linejoin: miter; stroke-miterlimit: 4; fill: rgb(126,137,131); fill-rule: nonzero; opacity: 1;"  paint-order="stroke"  transform=" translate(-100, -13.970011519213656)" d="M 16.26 26 L 183.74 26 L 183.74 27 L 16.26 27 Z M 0 25.39 L 3.28 25.39 L 3.28 23.39 L 0 23.39 Z M 196.72 23.39 L 196.72 25.39 L 200 25.39 L 200 23.39 Z M 123.27 21.55 L 193.93 21.55 L 193.93 22.55 L 123.37 22.55 C 123.37 22.830000000000002 123.37 23.1 123.37 23.39 L 191.09 23.39 L 191.09 25.39 L 8.86 25.39 L 8.86 23.39 L 76.58 23.39 C 76.58 23.1 76.58 22.830000000000002 76.58 22.55 L 6.07 22.55 L 6.07 21.55 L 76.73 21.55 C 76.9122919383639 20.049782753824694 77.24736463519177 18.572112160813788 77.73 17.140000000000008 C 78.47582851121277 14.810460927978761 79.57897891659482 12.610907214495292 81 10.620000000000001 C 82.44450064826296 8.617222912948753 84.20000182401662 6.858345773395562 86.2 5.4100000000000055 C 94.41633059712083 -0.5499692820969155 105.53366940287916 -0.5499692820969164 113.75 5.409999999999996 C 115.75277708705124 6.854500648262959 117.51165422660443 8.61000182401662 118.95999999999998 10.609999999999992 C 120.39675111880152 12.602457329951639 121.51665818891098 14.805166115438011 122.27999999999999 17.139999999999997 C 122.76128228681851 18.57190236556272 123.09305030288247 20.049778073483978 123.27 21.549999999999986 Z M 119.92 23.39 C 119.92 22.95 119.92 22.52 119.81 22.11 C 119.68281928086869 20.95737806433676 119.44847218696874 19.819120751108475 119.11 18.71 L 104.7 23.39 Z M 118.8 17.75 C 118.21316696991065 16.096440557022643 117.4130797434438 14.526521503409139 116.42 13.080000000000005 L 102.85 22.939999999999998 Z M 115.8 12.27 C 114.73648063798444 10.871526425368458 113.48847357463154 9.62351936201555 112.09 8.559999999999995 L 102.23 22.13 Z M 111.31 8 C 109.86136348548669 7.004457916775028 108.28780763825519 6.204230797883797 106.63 5.619999999999997 L 101.44999999999999 21.62 Z M 105.68 5.3100000000000005 C 103.99642893750277 4.812171929679683 102.25501614328819 4.536504267275058 100.50000000000001 4.49 L 100.5 21.23 Z M 99.5 4.46 C 97.74498385671181 4.506504267275057 96.00357106249723 4.78217192967968 94.32 5.279999999999997 L 99.5 21.28 Z M 88.69 8 L 98.55 21.57 L 93.37 5.59 C 91.710631614166 6.183628981722578 90.13700448314657 6.99397970517489 88.68999999999998 8.000000000000004 Z M 84.17 12.3 L 97.74000000000001 22.16 L 87.88 8.56 C 86.47914347986034 9.620787427647677 85.23078742764768 10.869143479860327 84.17000000000002 12.269999999999989 Z M 81.17 17.79 L 97.17 22.97 L 83.58 13.08 C 82.58099078694522 14.526573011149997 81.78052099094573 16.100606055384294 81.2 17.759999999999998 Z M 80.06 23.419999999999998 L 95.3 23.419999999999998 L 80.89 18.71 C 80.43845496825097 20.232701399426926 80.16989641723367 21.80376892287815 80.09 23.390000000000008 Z M 121.4 23.419999999999998 C 121.4 22.999999999999996 121.34 22.59 121.30000000000001 22.2 C 121.15017931993208 20.70072662404573 120.83835977609236 19.222098464547756 120.37 17.79 C 119.68171425338012 15.648760791190794 118.67001991907543 13.625372122581414 117.37 11.789999999999983 C 111.90085817097793 4.270326644242531 102.21283431145051 1.1257555665042585 93.37 4.0000000000000036 C 91.22713819870022 4.684302757567078 89.20315928683354 5.696292213500419 87.37 7.0000000000000036 C 85.54625657483899 8.327067111323457 83.9432287583246 9.933469723241043 82.62 11.759999999999998 C 81.31725705480628 13.593738683624473 80.30534517978334 15.617562433670336 79.62 17.759999999999998 C 79.15409337594537 19.18591659041029 78.8423137963469 20.65765030485893 78.69 22.150000000000016 C 78.69 22.549999999999997 78.61 22.97 78.59 23.389999999999997 L 79.11 23.389999999999997 C 79.29534286013293 19.307351977526135 80.68737221197273 15.371388985199113 83.11 12.079999999999998 C 85.70149475302011 8.513313029637397 89.34558461548606 5.848441172440612 93.53 4.459999999999999 C 98.8157004266622 2.7401904390854623 104.56830629546707 3.192493228095593 109.52027487360145 5.717246904674712 C 114.47224345173584 8.242000581253832 118.21721008477523 12.632020742047633 119.93 17.91999999999999 C 120.36356708782272 19.245927687359853 120.65847741094142 20.61323918545571 120.81 21.999999999999982 C 120.81 22.44 120.9 22.9 120.92 23.39 Z" stroke-linecap="round" />
</g>
</g>
</g>
</g>
</g>
<g transform="matrix(1.9211538461538462 0 0 1.9211538461538462 640.1388033653845 597.0628394454334)" id="tagline-e51d2b69-6625-453d-a9b4-25605e0577f2-logo"  >
<g style=""  paint-order="stroke"   >
		<g transform="matrix(1 0 0 1 5.684342e-14 0)" id="tagline-e51d2b69-6625-453d-a9b4-25605e0577f2-logo-path-0"  >
<path style="stroke: none; stroke-width: 0; stroke-dasharray: none; stroke-linecap: butt; stroke-dashoffset: 0; stroke-linejoin: miter; stroke-miterlimit: 4; fill: rgb(126,137,131); fill-rule: nonzero; opacity: 1;"  paint-order="stroke"  transform=" translate(-195.09000000000003, 5.949999999999999)" d="M 1.02 -11.9 L 4.79 -11.9 Q 5.73 -11.9 6.5 -11.44 Q 7.28 -10.98 7.73 -10.19 Q 8.18 -9.39 8.18 -8.43 L 8.18 -8.43 Q 8.18 -7.46 7.72 -6.67 Q 7.26 -5.87 6.48 -5.41 Q 5.7 -4.96 4.79 -4.96 L 4.79 -4.96 L 2.14 -4.96 L 2.14 0 L 1.02 0 L 1.02 -11.9 Z M 4.71 -6.08 Q 5.35 -6.08 5.88 -6.39 Q 6.42 -6.71 6.74 -7.26 Q 7.06 -7.81 7.06 -8.48 L 7.06 -8.48 Q 7.06 -9.15 6.74 -9.71 Q 6.42 -10.26 5.88 -10.57 Q 5.35 -10.89 4.71 -10.89 L 4.71 -10.89 L 2.14 -10.89 L 2.14 -6.08 L 4.71 -6.08 Z M 18.82 -11.9 L 22.82 -11.9 Q 23.76 -11.9 24.53 -11.44 Q 25.3 -10.98 25.75 -10.19 Q 26.2 -9.39 26.2 -8.43 L 26.2 -8.43 Q 26.2 -7.57 25.84 -6.85 Q 25.47 -6.13 24.85 -5.65 Q 24.22 -5.18 23.44 -5.04 L 23.44 -5.04 L 26.36 0 L 25.06 0 L 22.19 -4.96 L 19.94 -4.96 L 19.94 0 L 18.82 0 L 18.82 -11.9 Z M 22.73 -6.08 Q 23.37 -6.08 23.9 -6.39 Q 24.44 -6.71 24.76 -7.26 Q 25.07 -7.81 25.07 -8.48 L 25.07 -8.48 Q 25.07 -9.15 24.76 -9.71 Q 24.44 -10.26 23.9 -10.57 Q 23.37 -10.89 22.73 -10.89 L 22.73 -10.89 L 19.94 -10.89 L 19.94 -6.08 L 22.73 -6.08 Z M 37.19 0 L 37.19 -11.9 L 44.41 -11.9 L 44.41 -10.78 L 38.31 -10.78 L 38.31 -6.94 L 43.38 -6.94 L 43.38 -5.81 L 38.31 -5.81 L 38.31 -1.12 L 44.41 -1.12 L 44.41 0 L 37.19 0 Z M 59.15 0.22 Q 58.2 0.22 57.31 -0.08 Q 56.41 -0.37 55.76 -0.93 Q 55.1 -1.49 54.83 -2.24 L 54.83 -2.24 L 55.89 -2.63 Q 56.07 -2.1 56.58 -1.71 Q 57.08 -1.32 57.76 -1.11 Q 58.44 -0.9 59.15 -0.9 L 59.15 -0.9 Q 59.98 -0.9 60.71 -1.18 Q 61.43 -1.46 61.87 -1.97 Q 62.31 -2.48 62.31 -3.14 L 62.31 -3.14 Q 62.31 -4.08 61.43 -4.6 Q 60.55 -5.12 59.15 -5.36 L 59.15 -5.36 Q 57.8 -5.6 56.88 -5.97 Q 55.96 -6.33 55.43 -7 Q 54.89 -7.67 54.89 -8.72 L 54.89 -8.72 Q 54.89 -9.71 55.48 -10.47 Q 56.07 -11.23 57.04 -11.65 Q 58.02 -12.07 59.15 -12.07 L 59.15 -12.07 Q 60.09 -12.07 60.97 -11.78 Q 61.86 -11.48 62.53 -10.93 Q 63.2 -10.37 63.49 -9.61 L 63.49 -9.61 L 62.42 -9.22 Q 62.24 -9.75 61.74 -10.14 Q 61.23 -10.53 60.55 -10.74 Q 59.87 -10.95 59.15 -10.95 L 59.15 -10.95 Q 58.33 -10.95 57.6 -10.66 Q 56.88 -10.38 56.45 -9.87 Q 56.02 -9.37 56.02 -8.72 L 56.02 -8.72 Q 56.02 -7.98 56.41 -7.56 Q 56.8 -7.13 57.43 -6.92 Q 58.07 -6.71 59.15 -6.51 L 59.15 -6.51 Q 61.05 -6.19 62.24 -5.36 Q 63.43 -4.53 63.43 -3.14 L 63.43 -3.14 Q 63.43 -2.15 62.84 -1.39 Q 62.25 -0.62 61.28 -0.2 Q 60.3 0.22 59.15 0.22 L 59.15 0.22 Z M 74.2 0 L 74.2 -11.9 L 81.42 -11.9 L 81.42 -10.78 L 75.32 -10.78 L 75.32 -6.94 L 80.38 -6.94 L 80.38 -5.81 L 75.32 -5.81 L 75.32 -1.12 L 81.42 -1.12 L 81.42 0 L 74.2 0 Z M 92.31 -11.9 L 96.31 -11.9 Q 97.25 -11.9 98.02 -11.44 Q 98.8 -10.98 99.24 -10.19 Q 99.69 -9.39 99.69 -8.43 L 99.69 -8.43 Q 99.69 -7.57 99.33 -6.85 Q 98.97 -6.13 98.34 -5.65 Q 97.71 -5.18 96.93 -5.04 L 96.93 -5.04 L 99.85 0 L 98.55 0 L 95.68 -4.96 L 93.43 -4.96 L 93.43 0 L 92.31 0 L 92.31 -11.9 Z M 96.22 -6.08 Q 96.86 -6.08 97.39 -6.39 Q 97.93 -6.71 98.25 -7.26 Q 98.57 -7.81 98.57 -8.48 L 98.57 -8.48 Q 98.57 -9.15 98.25 -9.71 Q 97.93 -10.26 97.39 -10.57 Q 96.86 -10.89 96.22 -10.89 L 96.22 -10.89 L 93.43 -10.89 L 93.43 -6.08 L 96.22 -6.08 Z M 113.71 0 L 109.4 -11.9 L 110.59 -11.9 L 114.38 -1.43 L 118.2 -11.9 L 119.39 -11.9 L 115.06 0 L 113.71 0 Z M 129.69 0 L 129.69 -11.9 L 130.81 -11.9 L 130.81 0 L 129.69 0 Z M 142.18 0 L 142.18 -11.9 L 143.39 -11.9 L 149.77 -2.02 L 149.77 -11.9 L 150.89 -11.9 L 150.89 0 L 149.69 0 L 143.3 -9.88 L 143.3 0 L 142.18 0 Z M 167.18 0.22 Q 165.57 0.22 164.23 -0.61 Q 162.89 -1.45 162.1 -2.86 Q 161.32 -4.28 161.32 -5.96 L 161.32 -5.96 Q 161.32 -7.66 162.12 -9.07 Q 162.92 -10.48 164.27 -11.3 Q 165.62 -12.11 167.19 -12.11 L 167.19 -12.11 Q 168.56 -12.11 169.78 -11.47 Q 171 -10.83 171.85 -9.66 L 171.85 -9.66 L 170.85 -9.12 Q 170.17 -10.02 169.2 -10.51 Q 168.23 -11 167.19 -11 L 167.19 -11 Q 165.91 -11 164.82 -10.31 Q 163.73 -9.63 163.09 -8.47 Q 162.44 -7.31 162.44 -5.94 L 162.44 -5.94 Q 162.44 -4.58 163.08 -3.42 Q 163.72 -2.26 164.81 -1.58 Q 165.9 -0.9 167.19 -0.9 L 167.19 -0.9 Q 168.27 -0.9 169.21 -1.4 Q 170.15 -1.9 170.81 -2.76 Q 171.47 -3.62 171.71 -4.68 L 171.71 -4.68 L 168.42 -4.68 L 168.42 -5.7 L 173.02 -5.7 Q 172.97 -4.1 172.18 -2.74 Q 171.38 -1.38 170.05 -0.58 Q 168.72 0.22 167.18 0.22 L 167.18 0.22 Z M 203.36 -11.9 L 204.68 -11.9 L 200.69 -5.39 L 200.69 0 L 199.56 0 L 199.56 -5.39 L 195.56 -11.9 L 196.88 -11.9 L 200.12 -6.61 L 203.36 -11.9 Z M 219.79 0.22 Q 218.2 0.22 216.86 -0.61 Q 215.51 -1.45 214.72 -2.86 Q 213.93 -4.28 213.93 -5.95 L 213.93 -5.95 Q 213.93 -7.62 214.72 -9.04 Q 215.51 -10.46 216.86 -11.29 Q 218.2 -12.12 219.79 -12.12 L 219.79 -12.12 Q 221.38 -12.12 222.73 -11.29 Q 224.08 -10.46 224.87 -9.04 Q 225.66 -7.62 225.66 -5.95 L 225.66 -5.95 Q 225.66 -4.28 224.87 -2.86 Q 224.08 -1.45 222.73 -0.61 Q 221.38 0.22 219.79 0.22 L 219.79 0.22 Z M 219.79 -0.9 Q 221.09 -0.9 222.18 -1.59 Q 223.27 -2.28 223.9 -3.44 Q 224.54 -4.6 224.54 -5.95 L 224.54 -5.95 Q 224.54 -7.31 223.9 -8.47 Q 223.26 -9.63 222.17 -10.31 Q 221.08 -11 219.79 -11 L 219.79 -11 Q 218.5 -11 217.41 -10.31 Q 216.32 -9.62 215.68 -8.46 Q 215.05 -7.3 215.05 -5.95 L 215.05 -5.95 Q 215.05 -4.59 215.69 -3.43 Q 216.33 -2.27 217.42 -1.59 Q 218.51 -0.9 219.79 -0.9 L 219.79 -0.9 Z M 240.69 0.22 Q 239.29 0.22 238.25 -0.47 Q 237.2 -1.16 236.64 -2.34 Q 236.08 -3.52 236.08 -4.96 L 236.08 -4.96 L 236.08 -11.9 L 237.2 -11.9 L 237.2 -4.96 Q 237.2 -3.83 237.61 -2.91 Q 238.03 -1.99 238.81 -1.45 Q 239.6 -0.9 240.69 -0.9 L 240.69 -0.9 Q 241.78 -0.9 242.57 -1.45 Q 243.36 -1.99 243.76 -2.92 Q 244.16 -3.84 244.16 -4.96 L 244.16 -4.96 L 244.16 -11.9 L 245.28 -11.9 L 245.28 -4.96 Q 245.28 -3.52 244.72 -2.34 Q 244.16 -1.16 243.12 -0.47 Q 242.08 0.22 240.69 0.22 L 240.69 0.22 Z M 256.22 -11.9 L 260.23 -11.9 Q 261.16 -11.9 261.94 -11.44 Q 262.71 -10.98 263.16 -10.19 Q 263.6 -9.39 263.6 -8.43 L 263.6 -8.43 Q 263.6 -7.57 263.24 -6.85 Q 262.88 -6.13 262.25 -5.65 Q 261.62 -5.18 260.85 -5.04 L 260.85 -5.04 L 263.76 0 L 262.46 0 L 259.59 -4.96 L 257.35 -4.96 L 257.35 0 L 256.22 0 L 256.22 -11.9 Z M 260.13 -6.08 Q 260.77 -6.08 261.31 -6.39 Q 261.84 -6.71 262.16 -7.26 Q 262.48 -7.81 262.48 -8.48 L 262.48 -8.48 Q 262.48 -9.15 262.16 -9.71 Q 261.84 -10.26 261.31 -10.57 Q 260.77 -10.89 260.13 -10.89 L 260.13 -10.89 L 257.35 -10.89 L 257.35 -6.08 L 260.13 -6.08 Z M 287.16 0 L 287.16 -11.9 L 294.12 -11.9 L 294.12 -10.78 L 288.29 -10.78 L 288.29 -6.94 L 293.3 -6.94 L 293.3 -5.81 L 288.29 -5.81 L 288.29 0 L 287.16 0 Z M 308.64 0.22 Q 307.24 0.22 306.2 -0.47 Q 305.15 -1.16 304.59 -2.34 Q 304.03 -3.52 304.03 -4.96 L 304.03 -4.96 L 304.03 -11.9 L 305.15 -11.9 L 305.15 -4.96 Q 305.15 -3.83 305.56 -2.91 Q 305.97 -1.99 306.76 -1.45 Q 307.55 -0.9 308.64 -0.9 L 308.64 -0.9 Q 309.73 -0.9 310.52 -1.45 Q 311.3 -1.99 311.71 -2.92 Q 312.11 -3.84 312.11 -4.96 L 312.11 -4.96 L 312.11 -11.9 L 313.23 -11.9 L 313.23 -4.96 Q 313.23 -3.52 312.67 -2.34 Q 312.11 -1.16 311.07 -0.47 Q 310.03 0.22 308.64 0.22 L 308.64 0.22 Z M 333 -11.9 L 333 -10.78 L 328.88 -10.78 L 328.88 0 L 327.76 0 L 327.76 -10.78 L 323.65 -10.78 L 323.65 -11.9 L 333 -11.9 Z M 348.02 0.22 Q 346.63 0.22 345.58 -0.47 Q 344.54 -1.16 343.98 -2.34 Q 343.42 -3.52 343.42 -4.96 L 343.42 -4.96 L 343.42 -11.9 L 344.54 -11.9 L 344.54 -4.96 Q 344.54 -3.83 344.95 -2.91 Q 345.36 -1.99 346.15 -1.45 Q 346.94 -0.9 348.02 -0.9 L 348.02 -0.9 Q 349.12 -0.9 349.91 -1.45 Q 350.69 -1.99 351.1 -2.92 Q 351.5 -3.84 351.5 -4.96 L 351.5 -4.96 L 351.5 -11.9 L 352.62 -11.9 L 352.62 -4.96 Q 352.62 -3.52 352.06 -2.34 Q 351.5 -1.16 350.46 -0.47 Q 349.42 0.22 348.02 0.22 L 348.02 0.22 Z M 363.56 -11.9 L 367.57 -11.9 Q 368.5 -11.9 369.27 -11.44 Q 370.05 -10.98 370.49 -10.19 Q 370.94 -9.39 370.94 -8.43 L 370.94 -8.43 Q 370.94 -7.57 370.58 -6.85 Q 370.22 -6.13 369.59 -5.65 Q 368.96 -5.18 368.19 -5.04 L 368.19 -5.04 L 371.1 0 L 369.8 0 L 366.93 -4.96 L 364.68 -4.96 L 364.68 0 L 363.56 0 L 363.56 -11.9 Z M 367.47 -6.08 Q 368.11 -6.08 368.65 -6.39 Q 369.18 -6.71 369.5 -7.26 Q 369.82 -7.81 369.82 -8.48 L 369.82 -8.48 Q 369.82 -9.15 369.5 -9.71 Q 369.18 -10.26 368.65 -10.57 Q 368.11 -10.89 367.47 -10.89 L 367.47 -10.89 L 364.68 -10.89 L 364.68 -6.08 L 367.47 -6.08 Z M 381.93 0 L 381.93 -11.9 L 389.16 -11.9 L 389.16 -10.78 L 383.05 -10.78 L 383.05 -6.94 L 388.12 -6.94 L 388.12 -5.81 L 383.05 -5.81 L 383.05 -1.12 L 389.16 -1.12 L 389.16 0 L 381.93 0 Z" stroke-linecap="round" />
</g>
</g>
</g>
</svg>